<svg xmlns="http://www.w3.org/2000/svg" width="24" height="28"><path fill-rule="evenodd" d="M5.617 2.633c-1.016.76-3.894 4.876 1.492 14.204 5.674 9.83 11.073 9.422 12.156 8.756l-3.826-6.445c-.904.531-1.666-.343-3.072-2.241-.024-.016-2.744-4.578-2.753-4.636-.563-1.226-1.016-2.48-.07-3.036L5.616 2.633zM21.6 24.235a.83.83 0 00.292-1.144v-.005l-2.988-5.023a.836.836 0 00-1.143-.29l-1.83 1.078 3.836 6.462s1.83-1.074 1.83-1.076l.003-.002zM11.874 7.863a.828.828 0 00.295-1.141l.001-.006-3.075-5.168a.835.835 0 00-1.143-.292l-1.83 1.08 3.922 6.605s1.829-1.072 1.83-1.075v-.003z"/></svg>